<?xml version="1.0" encoding="utf-8"?>
<!-- Generator: Adobe Illustrator 24.3.0, SVG Export Plug-In . SVG Version: 6.00 Build 0)  -->
<svg version="1.1" id="Слой_1" xmlns="http://www.w3.org/2000/svg" xmlns:xlink="http://www.w3.org/1999/xlink" x="0px" y="0px"
	 width="187.055px" height="43px" viewBox="0 0 187.055 43" enable-background="new 0 0 187.055 43" xml:space="preserve">
<path fill="#444444" d="M24.021,25.325c0,5.534-4.269,9.017-9.585,9.017H0V0.735h12.774c5.381,0,9.694,3.566,9.694,9.144
	c0,3.521-1.598,5.975-4.224,7.33C21.772,18.391,24.021,21.107,24.021,25.325z M12.141,5.834H5.47v9.298h6.671
	c2.671,0,4.812-2.058,4.812-4.729C16.953,7.777,14.813,5.834,12.141,5.834z M18.532,24.647c0-2.646-2.166-4.703-4.857-4.703H5.47
	v9.298h8.205C16.365,29.242,18.532,27.274,18.532,24.647z M94.914,3.662v33.606h-5.08L73.06,14.621v22.647h-5.598V3.662h5.042
	l16.819,22.558V3.662H94.914z M128.904,0v33.606h-5.08l-16.774-22.647v22.647h-5.598V0h5.042l16.819,22.558V0H128.904z
	 M141.046,10.697v9.144h12.205v5.119h-12.205v9.144h14.09v5.099h-19.714V5.598h19.714v5.099H141.046z M173.687,21.446h-6.454v14.218
	h-5.623v-33.6h15.011c5.451,0,9.739,4.377,9.739,9.758c0,4.486-2.888,8.071-6.914,9.234l7.611,14.615h-6.084L173.687,21.446z
	 M167.233,16.544h8.62c2.825,0,5.01-1.751,5.01-4.658c0-2.824-2.185-4.729-5.01-4.729h-8.62L167.233,16.544L167.233,16.544z
	 M62.995,23.983c0,9.541-7.7,17.241-17.241,17.241c-3.061,0-5.949-0.786-8.448-2.185L34.552,43l-2.888-1.706l2.908-4.16
	c-3.719-3.17-6.084-7.879-6.084-13.151c0-9.541,7.7-17.241,17.26-17.241c3.061,0,5.949,0.812,8.448,2.211l2.754-3.962l2.869,1.751
	l-2.869,4.115C60.65,14.027,62.995,18.73,62.995,23.983z M37.702,32.641l13.368-19.209c-1.598-0.786-3.393-1.227-5.317-1.227
	c-6.588,0-11.79,5.163-11.79,11.771C33.958,27.44,35.383,30.501,37.702,32.641z M57.525,23.983c0-3.457-1.425-6.499-3.7-8.64
	L40.457,34.527c1.578,0.786,3.368,1.227,5.298,1.227C52.336,35.753,57.525,30.59,57.525,23.983z"/>
</svg>
